<?xml version="1.0" encoding="UTF-8"?>
<svg width="193px" height="47px" viewBox="0 0 193 47" version="1.1" xmlns="http://www.w3.org/2000/svg" xmlns:xlink="http://www.w3.org/1999/xlink">
    <!-- Generator: Sketch 40.3 (33839) - http://www.bohemiancoding.com/sketch -->
    <title>Untitled</title>
    <desc>Created with Sketch.</desc>
    <defs></defs>
    <g id="Page-1" stroke="none" stroke-width="1" fill="none" fill-rule="evenodd">
        <g id="BLSLogo_4c">
            <polyline id="Fill-1" fill="#8D2532" points="20.239 42.334 19.613 42.334 19.613 44.233 17.171 44.233 17.171 42.334 16.544 42.334 16.544 46.694 17.171 46.694 17.171 44.795 19.613 44.795 19.613 46.694 20.239 46.694 20.239 42.334"></polyline>
            <path d="M22.104,44.514 C22.104,45.697 23.006,46.752 24.431,46.752 C25.908,46.752 26.791,45.69 26.791,44.514 C26.791,43.299 25.883,42.276 24.444,42.276 C23.031,42.276 22.104,43.306 22.104,44.514 L22.104,44.514 Z M22.75,44.514 C22.75,43.555 23.472,42.852 24.444,42.852 C25.422,42.852 26.145,43.555 26.145,44.514 C26.145,45.467 25.422,46.176 24.444,46.176 C23.472,46.176 22.75,45.467 22.75,44.514 L22.75,44.514 Z" id="Fill-2" fill="#8D2532"></path>
            <path d="M32.366,42.635 C31.771,42.385 31.317,42.276 30.87,42.276 C29.482,42.276 28.479,43.248 28.479,44.578 C28.479,45.492 29.195,46.752 30.832,46.752 C31.516,46.752 31.982,46.592 32.411,46.368 L32.411,45.684 C31.918,46.004 31.381,46.176 30.889,46.176 C29.841,46.176 29.124,45.499 29.124,44.521 C29.124,43.561 29.866,42.852 30.863,42.852 C31.368,42.852 31.829,42.992 32.366,43.306 L32.366,42.635" id="Fill-3" fill="#8D2532"></path>
            <polyline id="Fill-4" fill="#8D2532" points="37.964 42.334 37.338 42.334 37.338 44.233 34.896 44.233 34.896 42.334 34.269 42.334 34.269 46.694 34.896 46.694 34.896 44.795 37.338 44.795 37.338 46.694 37.964 46.694 37.964 42.334"></polyline>
            <path d="M42.092,42.583 C41.786,42.379 41.453,42.276 41.121,42.276 C40.321,42.276 39.797,42.73 39.797,43.44 C39.797,44.635 41.683,44.738 41.683,45.639 C41.683,45.882 41.459,46.189 40.974,46.189 C40.545,46.189 40.142,45.965 39.823,45.556 L39.823,46.349 C40.187,46.624 40.571,46.752 41.044,46.752 C41.747,46.752 42.265,46.253 42.265,45.569 C42.265,44.182 40.379,44.195 40.379,43.357 C40.379,43.05 40.667,42.839 41.069,42.839 C41.364,42.839 41.722,42.941 42.092,43.293 L42.092,42.583" id="Fill-5" fill="#8D2532"></path>
            <path d="M47.753,42.635 C47.158,42.385 46.705,42.276 46.257,42.276 C44.87,42.276 43.866,43.248 43.866,44.578 C43.866,45.492 44.582,46.752 46.219,46.752 C46.903,46.752 47.37,46.592 47.798,46.368 L47.798,45.684 C47.305,46.004 46.768,46.176 46.276,46.176 C45.228,46.176 44.512,45.499 44.512,44.521 C44.512,43.561 45.253,42.852 46.251,42.852 C46.756,42.852 47.216,42.992 47.753,43.306 L47.753,42.635" id="Fill-6" fill="#8D2532"></path>
            <polyline id="Fill-7" fill="#8D2532" points="53.352 42.334 52.725 42.334 52.725 44.233 50.283 44.233 50.283 42.334 49.656 42.334 49.656 46.694 50.283 46.694 50.283 44.795 52.725 44.795 52.725 46.694 53.352 46.694 53.352 42.334"></polyline>
            <path d="M59.072,42.334 L58.445,42.334 L58.445,44.872 C58.445,45.282 58.394,45.601 58.17,45.825 C57.972,46.023 57.627,46.176 57.147,46.176 C56.77,46.176 56.457,46.055 56.207,45.806 C56.009,45.607 55.945,45.403 55.945,44.91 L55.945,42.334 L55.319,42.334 L55.319,45.045 C55.319,46.234 56.214,46.752 57.134,46.752 C58.432,46.752 59.072,46.048 59.072,44.981 L59.072,42.334" id="Fill-8" fill="#8D2532"></path>
            <polyline id="Fill-9" fill="#8D2532" points="61.646 42.334 61.019 42.334 61.019 46.694 63.615 46.694 63.615 46.132 61.646 46.132 61.646 42.334"></polyline>
            <polyline id="Fill-10" fill="#8D2532" points="67.724 42.334 65.25 42.334 65.25 46.694 67.781 46.694 67.781 46.132 65.876 46.132 65.876 44.776 67.66 44.776 67.66 44.214 65.876 44.214 65.876 42.896 67.724 42.896 67.724 42.334"></polyline>
            <polyline id="Fill-11" fill="#8D2532" points="74.738 42.334 72.411 42.334 72.411 46.694 73.037 46.694 73.037 44.667 74.738 44.667 74.738 44.105 73.037 44.105 73.037 42.896 74.738 42.896 74.738 42.334"></polyline>
            <path d="M77.689,41.273 C77.523,41.273 77.389,41.4 77.389,41.567 C77.389,41.733 77.523,41.867 77.689,41.867 C77.855,41.867 77.983,41.733 77.983,41.567 C77.983,41.4 77.855,41.273 77.689,41.273 L77.689,41.273 Z M78.878,41.273 C78.712,41.273 78.578,41.4 78.578,41.567 C78.578,41.733 78.712,41.867 78.878,41.867 C79.044,41.867 79.172,41.733 79.172,41.567 C79.172,41.4 79.044,41.273 78.878,41.273 L78.878,41.273 Z M80.157,42.334 L79.53,42.334 L79.53,44.872 C79.53,45.282 79.479,45.601 79.255,45.825 C79.057,46.023 78.712,46.176 78.233,46.176 C77.855,46.176 77.542,46.055 77.293,45.806 C77.094,45.607 77.031,45.403 77.031,44.91 L77.031,42.334 L76.404,42.334 L76.404,45.045 C76.404,46.234 77.299,46.752 78.22,46.752 C79.518,46.752 80.157,46.048 80.157,44.981 L80.157,42.334 L80.157,42.334 Z" id="Fill-12" fill="#8D2532"></path>
            <path d="M82.124,42.334 L82.124,46.694 L82.75,46.694 L82.75,44.802 L83.013,44.802 C83.332,44.802 83.594,44.904 84.17,45.799 L84.745,46.694 L85.493,46.694 C85.193,46.279 85.084,46.132 84.899,45.831 C84.566,45.288 84.323,44.885 83.927,44.623 C84.394,44.437 84.656,44.06 84.656,43.555 C84.656,42.801 84.106,42.334 83.224,42.334 L82.124,42.334 L82.124,42.334 Z M82.75,42.871 L83.153,42.871 C83.761,42.871 84.004,43.12 84.01,43.53 C84.016,43.894 83.825,44.239 83.153,44.239 L82.75,44.239 L82.75,42.871 L82.75,42.871 Z" id="Fill-13" fill="#8D2532"></path>
            <path d="M89.942,42.334 L89.942,46.694 L90.569,46.694 L90.569,44.802 L90.831,44.802 C91.151,44.802 91.413,44.904 91.988,45.799 L92.563,46.694 L93.312,46.694 C93.011,46.279 92.902,46.132 92.717,45.831 C92.384,45.288 92.142,44.885 91.745,44.623 C92.212,44.437 92.474,44.06 92.474,43.555 C92.474,42.801 91.924,42.334 91.042,42.334 L89.942,42.334 L89.942,42.334 Z M90.569,42.871 L90.972,42.871 C91.579,42.871 91.822,43.12 91.828,43.53 C91.835,43.894 91.643,44.239 90.972,44.239 L90.569,44.239 L90.569,42.871 L90.569,42.871 Z" id="Fill-14" fill="#8D2532"></path>
            <polyline id="Fill-15" fill="#8D2532" points="97.356 42.334 94.881 42.334 94.881 46.694 97.413 46.694 97.413 46.132 95.508 46.132 95.508 44.776 97.292 44.776 97.292 44.214 95.508 44.214 95.508 42.896 97.356 42.896 97.356 42.334"></polyline>
            <path d="M102.884,42.635 C102.29,42.385 101.836,42.276 101.388,42.276 C100.001,42.276 98.997,43.248 98.997,44.578 C98.997,45.492 99.713,46.752 101.35,46.752 C102.034,46.752 102.501,46.592 102.929,46.368 L102.929,45.684 C102.437,46.004 101.9,46.176 101.407,46.176 C100.359,46.176 99.643,45.499 99.643,44.521 C99.643,43.561 100.385,42.852 101.382,42.852 C101.887,42.852 102.347,42.992 102.884,43.306 L102.884,42.635" id="Fill-16" fill="#8D2532"></path>
            <polyline id="Fill-17" fill="#8D2532" points="108.483 42.334 107.856 42.334 107.856 44.233 105.414 44.233 105.414 42.334 104.787 42.334 104.787 46.694 105.414 46.694 105.414 44.795 107.856 44.795 107.856 46.694 108.483 46.694 108.483 42.334"></polyline>
            <polyline id="Fill-18" fill="#8D2532" points="113.813 42.334 110.169 42.334 110.169 42.896 111.677 42.896 111.677 46.694 112.304 46.694 112.304 42.896 113.813 42.896 113.813 42.334"></polyline>
            <path d="M117.563,42.583 C117.256,42.379 116.923,42.276 116.591,42.276 C115.792,42.276 115.268,42.73 115.268,43.44 C115.268,44.635 117.154,44.738 117.154,45.639 C117.154,45.882 116.93,46.189 116.444,46.189 C116.016,46.189 115.613,45.965 115.293,45.556 L115.293,46.349 C115.658,46.624 116.041,46.752 116.514,46.752 C117.218,46.752 117.735,46.253 117.735,45.569 C117.735,44.182 115.849,44.195 115.849,43.357 C115.849,43.05 116.137,42.839 116.54,42.839 C116.834,42.839 117.192,42.941 117.563,43.293 L117.563,42.583" id="Fill-19" fill="#8D2532"></path>
            <polyline id="Fill-20" fill="#8D2532" points="125.685 42.334 125.065 42.334 123.875 45.339 122.661 42.334 122.066 42.334 120.858 45.339 119.656 42.334 119.029 42.334 120.794 46.733 120.915 46.733 122.36 43.165 123.792 46.733 123.914 46.733 125.685 42.334"></polyline>
            <polygon id="Fill-21" fill="#8D2532" points="127.273 46.695 127.9 46.695 127.9 42.334 127.273 42.334"></polygon>
            <path d="M132.026,42.583 C131.719,42.379 131.387,42.276 131.054,42.276 C130.255,42.276 129.731,42.73 129.731,43.44 C129.731,44.635 131.617,44.738 131.617,45.639 C131.617,45.882 131.393,46.189 130.907,46.189 C130.479,46.189 130.076,45.965 129.756,45.556 L129.756,46.349 C130.121,46.624 130.504,46.752 130.977,46.752 C131.681,46.752 132.199,46.253 132.199,45.569 C132.199,44.182 130.313,44.195 130.313,43.357 C130.313,43.05 130.6,42.839 131.003,42.839 C131.297,42.839 131.655,42.941 132.026,43.293 L132.026,42.583" id="Fill-22" fill="#8D2532"></path>
            <path d="M136.043,42.583 C135.736,42.379 135.404,42.276 135.072,42.276 C134.272,42.276 133.748,42.73 133.748,43.44 C133.748,44.635 135.634,44.738 135.634,45.639 C135.634,45.882 135.411,46.189 134.925,46.189 C134.496,46.189 134.093,45.965 133.774,45.556 L133.774,46.349 C134.138,46.624 134.522,46.752 134.995,46.752 C135.698,46.752 136.216,46.253 136.216,45.569 C136.216,44.182 134.33,44.195 134.33,43.357 C134.33,43.05 134.618,42.839 135.021,42.839 C135.315,42.839 135.673,42.941 136.043,43.293 L136.043,42.583" id="Fill-23" fill="#8D2532"></path>
            <polyline id="Fill-24" fill="#8D2532" points="140.464 42.334 137.989 42.334 137.989 46.694 140.521 46.694 140.521 46.132 138.616 46.132 138.616 44.776 140.4 44.776 140.4 44.214 138.616 44.214 138.616 42.896 140.464 42.896 140.464 42.334"></polyline>
            <polyline id="Fill-25" fill="#8D2532" points="146.312 42.334 145.724 42.334 145.724 45.71 142.77 42.334 142.271 42.334 142.271 46.694 142.86 46.694 142.86 43.338 145.775 46.694 146.312 46.694 146.312 42.334"></polyline>
            <path d="M150.435,42.583 C150.128,42.379 149.795,42.276 149.463,42.276 C148.664,42.276 148.14,42.73 148.14,43.44 C148.14,44.635 150.025,44.738 150.025,45.639 C150.025,45.882 149.802,46.189 149.316,46.189 C148.887,46.189 148.485,45.965 148.165,45.556 L148.165,46.349 C148.529,46.624 148.913,46.752 149.386,46.752 C150.089,46.752 150.607,46.253 150.607,45.569 C150.607,44.182 148.721,44.195 148.721,43.357 C148.721,43.05 149.009,42.839 149.412,42.839 C149.706,42.839 150.064,42.941 150.435,43.293 L150.435,42.583" id="Fill-26" fill="#8D2532"></path>
            <path d="M156.095,42.635 C155.501,42.385 155.047,42.276 154.599,42.276 C153.212,42.276 152.208,43.248 152.208,44.578 C152.208,45.492 152.924,46.752 154.561,46.752 C155.245,46.752 155.712,46.592 156.14,46.368 L156.14,45.684 C155.648,46.004 155.111,46.176 154.618,46.176 C153.57,46.176 152.854,45.499 152.854,44.521 C152.854,43.561 153.595,42.852 154.593,42.852 C155.098,42.852 155.558,42.992 156.095,43.306 L156.095,42.635" id="Fill-27" fill="#8D2532"></path>
            <polyline id="Fill-28" fill="#8D2532" points="161.694 42.334 161.067 42.334 161.067 44.233 158.625 44.233 158.625 42.334 157.998 42.334 157.998 46.694 158.625 46.694 158.625 44.795 161.067 44.795 161.067 46.694 161.694 46.694 161.694 42.334"></polyline>
            <path d="M165.585,42.308 L165.144,42.308 L163.271,46.694 L163.91,46.694 L164.46,45.409 L166.314,45.409 L166.896,46.694 L167.535,46.694 L165.585,42.308 L165.585,42.308 Z M165.355,43.267 L166.058,44.847 L164.703,44.847 L165.355,43.267 L165.355,43.267 Z" id="Fill-29" fill="#8D2532"></path>
            <polyline id="Fill-30" fill="#8D2532" points="171.441 42.334 169.114 42.334 169.114 46.694 169.74 46.694 169.74 44.667 171.441 44.667 171.441 44.105 169.74 44.105 169.74 42.896 171.441 42.896 171.441 42.334"></polyline>
            <polyline id="Fill-31" fill="#8D2532" points="176.47 42.334 172.826 42.334 172.826 42.896 174.335 42.896 174.335 46.694 174.961 46.694 174.961 42.896 176.47 42.896 176.47 42.334"></polyline>
            <path d="M68.532,29.784 L67.552,29.784 L67.552,33.752 C67.552,34.392 67.472,34.891 67.123,35.241 C66.813,35.551 66.273,35.791 65.523,35.791 C64.934,35.791 64.444,35.601 64.054,35.211 C63.744,34.901 63.644,34.581 63.644,33.812 L63.644,29.784 L62.665,29.784 L62.665,34.022 C62.665,35.881 64.064,36.69 65.503,36.69 C67.532,36.69 68.532,35.591 68.532,33.922 L68.532,29.784" id="Fill-32" fill="#1A1918"></path>
            <path d="M77.421,30.174 C76.941,29.854 76.421,29.694 75.902,29.694 C74.652,29.694 73.833,30.404 73.833,31.513 C73.833,33.382 76.781,33.542 76.781,34.951 C76.781,35.331 76.431,35.811 75.672,35.811 C75.002,35.811 74.372,35.461 73.873,34.821 L73.873,36.061 C74.442,36.49 75.042,36.69 75.782,36.69 C76.881,36.69 77.691,35.911 77.691,34.842 C77.691,32.673 74.742,32.693 74.742,31.383 C74.742,30.904 75.192,30.574 75.822,30.574 C76.281,30.574 76.841,30.734 77.421,31.284 L77.421,30.174" id="Fill-33" fill="#1A1918"></path>
            <path d="M134.546,30.174 C134.067,29.854 133.547,29.694 133.027,29.694 C131.778,29.694 130.958,30.404 130.958,31.513 C130.958,33.382 133.907,33.542 133.907,34.951 C133.907,35.331 133.557,35.811 132.797,35.811 C132.128,35.811 131.498,35.461 130.998,34.821 L130.998,36.061 C131.568,36.49 132.168,36.69 132.907,36.69 C134.007,36.69 134.816,35.911 134.816,34.842 C134.816,32.673 131.868,32.693 131.868,31.383 C131.868,30.904 132.318,30.574 132.947,30.574 C133.407,30.574 133.967,30.734 134.546,31.284 L134.546,30.174" id="Fill-34" fill="#1A1918"></path>
            <path d="M145.992,30.254 C145.063,29.864 144.353,29.694 143.654,29.694 C141.485,29.694 139.916,31.213 139.916,33.292 C139.916,34.721 141.035,36.69 143.594,36.69 C144.663,36.69 145.393,36.441 146.062,36.091 L146.062,35.021 C145.293,35.521 144.453,35.791 143.684,35.791 C142.044,35.791 140.925,34.731 140.925,33.202 C140.925,31.703 142.084,30.594 143.644,30.594 C144.433,30.594 145.153,30.814 145.992,31.303 L145.992,30.254" id="Fill-35" fill="#1A1918"></path>
            <polyline id="Fill-36" fill="#1A1918" points="157.34 29.784 156.36 29.784 156.36 32.753 152.542 32.753 152.542 29.784 151.563 29.784 151.563 36.601 152.542 36.601 152.542 33.632 156.36 33.632 156.36 36.601 157.34 36.601 157.34 29.784"></polyline>
            <path d="M162.851,33.192 C162.851,35.041 164.26,36.69 166.489,36.69 C168.797,36.69 170.177,35.031 170.177,33.192 C170.177,31.293 168.758,29.694 166.509,29.694 C164.3,29.694 162.851,31.303 162.851,33.192 L162.851,33.192 Z M163.86,33.192 C163.86,31.693 164.99,30.594 166.509,30.594 C168.038,30.594 169.167,31.693 169.167,33.192 C169.167,34.681 168.038,35.791 166.509,35.791 C164.99,35.791 163.86,34.681 163.86,33.192 L163.86,33.192 Z" id="Fill-37" fill="#1A1918"></path>
            <path d="M175.381,33.192 C175.381,35.041 176.79,36.69 179.019,36.69 C181.328,36.69 182.707,35.031 182.707,33.192 C182.707,31.293 181.288,29.694 179.039,29.694 C176.83,29.694 175.381,31.303 175.381,33.192 L175.381,33.192 Z M176.39,33.192 C176.39,31.693 177.52,30.594 179.039,30.594 C180.568,30.594 181.697,31.693 181.697,33.192 C181.697,34.681 180.568,35.791 179.039,35.791 C177.52,35.791 176.39,34.681 176.39,33.192 L176.39,33.192 Z" id="Fill-38" fill="#1A1918"></path>
            <polyline id="Fill-39" fill="#1A1918" points="189.18 29.784 188.201 29.784 188.201 36.601 192.258 36.601 192.258 35.721 189.18 35.721 189.18 29.784"></polyline>
            <polyline id="Fill-40" fill="#1A1918" points="91.31 29.785 90.331 29.785 90.331 36.601 94.388 36.601 94.388 35.721 91.31 35.721 91.31 29.785"></polyline>
            <path d="M102.409,29.745 L101.719,29.745 L98.791,36.601 L99.79,36.601 L100.65,34.592 L103.548,34.592 L104.458,36.601 L105.457,36.601 L102.409,29.745 L102.409,29.745 Z M102.049,31.244 L103.148,33.712 L101.029,33.712 L102.049,31.244 L102.049,31.244 Z" id="Fill-41" fill="#1A1918"></path>
            <polyline id="Fill-42" fill="#1A1918" points="119.366 29.785 118.396 29.785 116.537 34.482 114.639 29.785 113.709 29.785 111.82 34.482 109.941 29.785 108.962 29.785 111.72 36.661 111.91 36.661 114.169 31.084 116.408 36.661 116.597 36.661 119.366 29.785"></polyline>
            <path d="M44.693,29.784 L44.693,36.6 L45.672,36.6 L45.672,33.642 L46.082,33.642 C46.582,33.642 46.991,33.801 47.891,35.201 L48.79,36.6 L49.96,36.6 C49.49,35.95 49.32,35.72 49.03,35.251 C48.51,34.401 48.131,33.771 47.511,33.362 C48.241,33.072 48.65,32.482 48.65,31.692 C48.65,30.513 47.791,29.784 46.412,29.784 L44.693,29.784 L44.693,29.784 Z M45.672,30.623 L46.302,30.623 C47.251,30.623 47.631,31.013 47.641,31.653 C47.651,32.222 47.351,32.762 46.302,32.762 L45.672,32.762 L45.672,30.623 L45.672,30.623 Z" id="Fill-43" fill="#1A1918"></path>
            <polygon id="Fill-44" fill="#1A1918" points="55.448 36.6 56.427 36.6 56.427 29.784 55.448 29.784"></polygon>
            <path d="M0.756,36.6 L3.094,36.6 C4.803,36.6 5.433,35.621 5.433,34.781 C5.433,33.862 4.813,33.192 3.794,33.002 L3.794,32.982 C4.504,32.692 4.833,32.232 4.833,31.523 C4.833,30.663 4.204,29.784 2.735,29.784 L0.756,29.784 L0.756,36.6 L0.756,36.6 Z M1.735,30.663 L2.635,30.663 C3.534,30.663 3.824,31.103 3.824,31.613 C3.824,32.342 3.354,32.702 2.385,32.702 L1.735,32.702 L1.735,30.663 L1.735,30.663 Z M1.735,33.582 L2.915,33.582 C3.944,33.582 4.424,34.021 4.424,34.641 C4.424,35.151 4.114,35.72 2.965,35.72 L1.735,35.72 L1.735,33.582 L1.735,33.582 Z" id="Fill-45" fill="#1A1918"></path>
            <path d="M27.808,30.254 C26.879,29.864 26.169,29.694 25.47,29.694 C23.301,29.694 21.732,31.214 21.732,33.292 C21.732,34.722 22.851,36.691 25.409,36.691 C26.479,36.691 27.208,36.441 27.878,36.091 L27.878,35.021 C27.109,35.521 26.269,35.791 25.5,35.791 C23.86,35.791 22.741,34.732 22.741,33.203 C22.741,31.703 23.9,30.594 25.459,30.594 C26.249,30.594 26.969,30.814 27.808,31.304 L27.808,30.254" id="Fill-46" fill="#1A1918"></path>
            <path d="M16.827,29.784 L15.848,29.784 L15.848,33.752 C15.848,34.392 15.767,34.891 15.418,35.241 C15.108,35.551 14.568,35.791 13.819,35.791 C13.229,35.791 12.739,35.601 12.349,35.211 C12.04,34.902 11.94,34.582 11.94,33.812 L11.94,29.784 L10.96,29.784 L10.96,34.022 C10.96,35.881 12.359,36.691 13.799,36.691 C15.827,36.691 16.827,35.591 16.827,33.922 L16.827,29.784" id="Fill-47" fill="#1A1918"></path>
            <polyline id="Fill-48" fill="#1A1918" points="38.072 29.784 34.204 29.784 34.204 36.6 38.162 36.6 38.162 35.72 35.183 35.72 35.183 33.602 37.972 33.602 37.972 32.722 35.183 32.722 35.183 30.663 38.072 30.663 38.072 29.784"></polyline>
            <polygon id="Fill-49" fill="#8D2532" points="56.482 14.669 89.647 14.669 89.647 5.031 56.482 5.031"></polygon>
            <polygon id="Fill-50" fill="#8D2532" points="103.367 14.66 136.532 14.66 136.532 5.022 103.367 5.022"></polygon>
            <polygon id="Fill-51" fill="#8D2532" points="91.688 16.332 101.326 16.332 101.326 0.037 91.688 0.037"></polygon>
        </g>
    </g>
</svg>